<mxfile host="app.diagrams.net" modified="2023-06-07T20:21:08.988Z" agent="Mozilla/5.0 (Windows NT 10.0; Win64; x64) AppleWebKit/537.36 (KHTML, like Gecko) Chrome/113.0.0.0 Safari/537.36" etag="LFeLQHJicW1tds2jqgSM" version="21.3.7" type="github">
  <diagram name="第 1 页" id="PDFTyF6WWpx5q8OWHohu">
    <mxGraphModel dx="1288" dy="1772" grid="1" gridSize="10" guides="1" tooltips="1" connect="1" arrows="1" fold="1" page="1" pageScale="1" pageWidth="827" pageHeight="1169" math="0" shadow="0">
      <root>
        <mxCell id="0" />
        <mxCell id="1" parent="0" />
        <mxCell id="RXHQ1XSv25AkQ3Qk1fcs-1" value="reservation" style="rounded=1;whiteSpace=wrap;html=1;" parent="1" vertex="1">
          <mxGeometry x="230" y="280" width="150" height="80" as="geometry" />
        </mxCell>
        <mxCell id="YuRVg5OCgSCOBWCLDBt9-1" style="edgeStyle=orthogonalEdgeStyle;rounded=0;orthogonalLoop=1;jettySize=auto;html=1;entryX=0;entryY=0.5;entryDx=0;entryDy=0;" parent="1" source="RXHQ1XSv25AkQ3Qk1fcs-2" target="RXHQ1XSv25AkQ3Qk1fcs-1" edge="1">
          <mxGeometry relative="1" as="geometry" />
        </mxCell>
        <mxCell id="RXHQ1XSv25AkQ3Qk1fcs-2" value="reservation_id" style="ellipse;whiteSpace=wrap;html=1;" parent="1" vertex="1">
          <mxGeometry x="50" y="260" width="100" height="60" as="geometry" />
        </mxCell>
        <mxCell id="YuRVg5OCgSCOBWCLDBt9-2" style="edgeStyle=orthogonalEdgeStyle;rounded=0;orthogonalLoop=1;jettySize=auto;html=1;entryX=0;entryY=0.5;entryDx=0;entryDy=0;" parent="1" source="RXHQ1XSv25AkQ3Qk1fcs-3" target="RXHQ1XSv25AkQ3Qk1fcs-1" edge="1">
          <mxGeometry relative="1" as="geometry" />
        </mxCell>
        <mxCell id="RXHQ1XSv25AkQ3Qk1fcs-3" value="start_datetime" style="ellipse;whiteSpace=wrap;html=1;" parent="1" vertex="1">
          <mxGeometry x="50" y="330" width="100" height="60" as="geometry" />
        </mxCell>
        <mxCell id="YuRVg5OCgSCOBWCLDBt9-3" style="edgeStyle=orthogonalEdgeStyle;rounded=0;orthogonalLoop=1;jettySize=auto;html=1;entryX=0;entryY=0.5;entryDx=0;entryDy=0;" parent="1" source="RXHQ1XSv25AkQ3Qk1fcs-4" target="RXHQ1XSv25AkQ3Qk1fcs-1" edge="1">
          <mxGeometry relative="1" as="geometry" />
        </mxCell>
        <mxCell id="RXHQ1XSv25AkQ3Qk1fcs-4" value="end_datetime" style="ellipse;whiteSpace=wrap;html=1;" parent="1" vertex="1">
          <mxGeometry x="50" y="400" width="100" height="60" as="geometry" />
        </mxCell>
        <mxCell id="YuRVg5OCgSCOBWCLDBt9-5" style="edgeStyle=orthogonalEdgeStyle;rounded=0;orthogonalLoop=1;jettySize=auto;html=1;entryX=0;entryY=0.5;entryDx=0;entryDy=0;" parent="1" source="RXHQ1XSv25AkQ3Qk1fcs-6" target="RXHQ1XSv25AkQ3Qk1fcs-1" edge="1">
          <mxGeometry relative="1" as="geometry" />
        </mxCell>
        <mxCell id="RXHQ1XSv25AkQ3Qk1fcs-6" value="requirement" style="ellipse;whiteSpace=wrap;html=1;" parent="1" vertex="1">
          <mxGeometry x="50" y="540" width="100" height="60" as="geometry" />
        </mxCell>
        <mxCell id="YuRVg5OCgSCOBWCLDBt9-6" style="edgeStyle=orthogonalEdgeStyle;rounded=0;orthogonalLoop=1;jettySize=auto;html=1;entryX=0;entryY=0.5;entryDx=0;entryDy=0;" parent="1" source="RXHQ1XSv25AkQ3Qk1fcs-7" target="RXHQ1XSv25AkQ3Qk1fcs-1" edge="1">
          <mxGeometry relative="1" as="geometry" />
        </mxCell>
        <mxCell id="RXHQ1XSv25AkQ3Qk1fcs-7" value="adults" style="ellipse;whiteSpace=wrap;html=1;" parent="1" vertex="1">
          <mxGeometry x="50" y="610" width="100" height="60" as="geometry" />
        </mxCell>
        <mxCell id="YuRVg5OCgSCOBWCLDBt9-7" style="edgeStyle=orthogonalEdgeStyle;rounded=0;orthogonalLoop=1;jettySize=auto;html=1;entryX=0;entryY=0.5;entryDx=0;entryDy=0;" parent="1" source="RXHQ1XSv25AkQ3Qk1fcs-8" target="RXHQ1XSv25AkQ3Qk1fcs-1" edge="1">
          <mxGeometry relative="1" as="geometry" />
        </mxCell>
        <mxCell id="RXHQ1XSv25AkQ3Qk1fcs-8" value="children" style="ellipse;whiteSpace=wrap;html=1;" parent="1" vertex="1">
          <mxGeometry x="50" y="680" width="100" height="60" as="geometry" />
        </mxCell>
        <mxCell id="RXHQ1XSv25AkQ3Qk1fcs-9" value="requests" style="ellipse;whiteSpace=wrap;html=1;" parent="1" vertex="1">
          <mxGeometry x="50" y="750" width="100" height="60" as="geometry" />
        </mxCell>
        <mxCell id="YuRVg5OCgSCOBWCLDBt9-8" style="edgeStyle=orthogonalEdgeStyle;rounded=0;orthogonalLoop=1;jettySize=auto;html=1;entryX=0;entryY=0.5;entryDx=0;entryDy=0;" parent="1" source="RXHQ1XSv25AkQ3Qk1fcs-10" target="RXHQ1XSv25AkQ3Qk1fcs-1" edge="1">
          <mxGeometry relative="1" as="geometry" />
        </mxCell>
        <mxCell id="RXHQ1XSv25AkQ3Qk1fcs-10" value="customer_notes" style="ellipse;whiteSpace=wrap;html=1;" parent="1" vertex="1">
          <mxGeometry x="50" y="750" width="100" height="60" as="geometry" />
        </mxCell>
        <mxCell id="YuRVg5OCgSCOBWCLDBt9-9" style="edgeStyle=orthogonalEdgeStyle;rounded=0;orthogonalLoop=1;jettySize=auto;html=1;entryX=0;entryY=0.5;entryDx=0;entryDy=0;" parent="1" source="RXHQ1XSv25AkQ3Qk1fcs-11" target="RXHQ1XSv25AkQ3Qk1fcs-1" edge="1">
          <mxGeometry relative="1" as="geometry" />
        </mxCell>
        <mxCell id="RXHQ1XSv25AkQ3Qk1fcs-11" value="timestamp" style="ellipse;whiteSpace=wrap;html=1;" parent="1" vertex="1">
          <mxGeometry x="50" y="820" width="100" height="60" as="geometry" />
        </mxCell>
        <mxCell id="YuRVg5OCgSCOBWCLDBt9-15" style="edgeStyle=orthogonalEdgeStyle;rounded=0;orthogonalLoop=1;jettySize=auto;html=1;entryX=1;entryY=0.5;entryDx=0;entryDy=0;" parent="1" source="RXHQ1XSv25AkQ3Qk1fcs-12" target="RXHQ1XSv25AkQ3Qk1fcs-35" edge="1">
          <mxGeometry relative="1" as="geometry" />
        </mxCell>
        <mxCell id="RXHQ1XSv25AkQ3Qk1fcs-12" value="identity_card" style="ellipse;whiteSpace=wrap;html=1;" parent="1" vertex="1">
          <mxGeometry x="810" y="360" width="100" height="60" as="geometry" />
        </mxCell>
        <mxCell id="RXHQ1XSv25AkQ3Qk1fcs-13" value="rooms" style="rounded=1;whiteSpace=wrap;html=1;" parent="1" vertex="1">
          <mxGeometry x="230" y="505" width="150" height="80" as="geometry" />
        </mxCell>
        <mxCell id="YuRVg5OCgSCOBWCLDBt9-25" style="edgeStyle=orthogonalEdgeStyle;rounded=0;orthogonalLoop=1;jettySize=auto;html=1;entryX=1;entryY=0.5;entryDx=0;entryDy=0;" parent="1" source="RXHQ1XSv25AkQ3Qk1fcs-15" target="RXHQ1XSv25AkQ3Qk1fcs-13" edge="1">
          <mxGeometry relative="1" as="geometry" />
        </mxCell>
        <mxCell id="RXHQ1XSv25AkQ3Qk1fcs-15" value="room_id" style="ellipse;whiteSpace=wrap;html=1;" parent="1" vertex="1">
          <mxGeometry x="440" y="590" width="100" height="60" as="geometry" />
        </mxCell>
        <mxCell id="YuRVg5OCgSCOBWCLDBt9-26" style="edgeStyle=orthogonalEdgeStyle;rounded=0;orthogonalLoop=1;jettySize=auto;html=1;entryX=1;entryY=0.5;entryDx=0;entryDy=0;" parent="1" source="RXHQ1XSv25AkQ3Qk1fcs-16" target="RXHQ1XSv25AkQ3Qk1fcs-13" edge="1">
          <mxGeometry relative="1" as="geometry" />
        </mxCell>
        <mxCell id="RXHQ1XSv25AkQ3Qk1fcs-16" value="room_number" style="ellipse;whiteSpace=wrap;html=1;" parent="1" vertex="1">
          <mxGeometry x="440" y="660" width="100" height="60" as="geometry" />
        </mxCell>
        <mxCell id="YuRVg5OCgSCOBWCLDBt9-27" style="edgeStyle=orthogonalEdgeStyle;rounded=0;orthogonalLoop=1;jettySize=auto;html=1;entryX=1;entryY=0.5;entryDx=0;entryDy=0;" parent="1" source="RXHQ1XSv25AkQ3Qk1fcs-17" target="RXHQ1XSv25AkQ3Qk1fcs-13" edge="1">
          <mxGeometry relative="1" as="geometry" />
        </mxCell>
        <mxCell id="RXHQ1XSv25AkQ3Qk1fcs-17" value="type" style="ellipse;whiteSpace=wrap;html=1;" parent="1" vertex="1">
          <mxGeometry x="440" y="730" width="100" height="60" as="geometry" />
        </mxCell>
        <mxCell id="YuRVg5OCgSCOBWCLDBt9-28" style="edgeStyle=orthogonalEdgeStyle;rounded=0;orthogonalLoop=1;jettySize=auto;html=1;entryX=1;entryY=0.5;entryDx=0;entryDy=0;" parent="1" source="RXHQ1XSv25AkQ3Qk1fcs-18" target="RXHQ1XSv25AkQ3Qk1fcs-13" edge="1">
          <mxGeometry relative="1" as="geometry" />
        </mxCell>
        <mxCell id="RXHQ1XSv25AkQ3Qk1fcs-18" value="price" style="ellipse;whiteSpace=wrap;html=1;" parent="1" vertex="1">
          <mxGeometry x="440" y="800" width="100" height="60" as="geometry" />
        </mxCell>
        <mxCell id="YuRVg5OCgSCOBWCLDBt9-29" style="edgeStyle=orthogonalEdgeStyle;rounded=0;orthogonalLoop=1;jettySize=auto;html=1;entryX=1;entryY=0.5;entryDx=0;entryDy=0;" parent="1" source="RXHQ1XSv25AkQ3Qk1fcs-19" target="RXHQ1XSv25AkQ3Qk1fcs-13" edge="1">
          <mxGeometry relative="1" as="geometry" />
        </mxCell>
        <mxCell id="RXHQ1XSv25AkQ3Qk1fcs-19" value="available" style="ellipse;whiteSpace=wrap;html=1;" parent="1" vertex="1">
          <mxGeometry x="440" y="870" width="100" height="60" as="geometry" />
        </mxCell>
        <mxCell id="YuRVg5OCgSCOBWCLDBt9-21" style="edgeStyle=orthogonalEdgeStyle;rounded=0;orthogonalLoop=1;jettySize=auto;html=1;entryX=1;entryY=0.5;entryDx=0;entryDy=0;" parent="1" source="RXHQ1XSv25AkQ3Qk1fcs-21" target="RXHQ1XSv25AkQ3Qk1fcs-35" edge="1">
          <mxGeometry relative="1" as="geometry" />
        </mxCell>
        <mxCell id="RXHQ1XSv25AkQ3Qk1fcs-21" value="guest_email" style="ellipse;whiteSpace=wrap;html=1;" parent="1" vertex="1">
          <mxGeometry x="810" y="500" width="100" height="60" as="geometry" />
        </mxCell>
        <mxCell id="YuRVg5OCgSCOBWCLDBt9-22" style="edgeStyle=orthogonalEdgeStyle;rounded=0;orthogonalLoop=1;jettySize=auto;html=1;entryX=1;entryY=0.5;entryDx=0;entryDy=0;" parent="1" source="RXHQ1XSv25AkQ3Qk1fcs-23" target="RXHQ1XSv25AkQ3Qk1fcs-35" edge="1">
          <mxGeometry relative="1" as="geometry" />
        </mxCell>
        <mxCell id="RXHQ1XSv25AkQ3Qk1fcs-23" value="guest_phone" style="ellipse;whiteSpace=wrap;html=1;" parent="1" vertex="1">
          <mxGeometry x="810" y="570" width="100" height="60" as="geometry" />
        </mxCell>
        <mxCell id="RXHQ1XSv25AkQ3Qk1fcs-24" value="invoices" style="rounded=1;whiteSpace=wrap;html=1;" parent="1" vertex="1">
          <mxGeometry x="230" y="-10" width="150" height="80" as="geometry" />
        </mxCell>
        <mxCell id="wKvJtehbNYMBdX50lIKt-2" style="edgeStyle=orthogonalEdgeStyle;rounded=0;orthogonalLoop=1;jettySize=auto;html=1;entryX=0;entryY=0.5;entryDx=0;entryDy=0;" edge="1" parent="1" source="RXHQ1XSv25AkQ3Qk1fcs-25" target="RXHQ1XSv25AkQ3Qk1fcs-24">
          <mxGeometry relative="1" as="geometry" />
        </mxCell>
        <mxCell id="RXHQ1XSv25AkQ3Qk1fcs-25" value="invoice_id" style="ellipse;whiteSpace=wrap;html=1;" parent="1" vertex="1">
          <mxGeometry x="60" y="-230" width="100" height="60" as="geometry" />
        </mxCell>
        <mxCell id="wKvJtehbNYMBdX50lIKt-3" style="edgeStyle=orthogonalEdgeStyle;rounded=0;orthogonalLoop=1;jettySize=auto;html=1;entryX=0;entryY=0.5;entryDx=0;entryDy=0;" edge="1" parent="1" source="RXHQ1XSv25AkQ3Qk1fcs-26" target="RXHQ1XSv25AkQ3Qk1fcs-24">
          <mxGeometry relative="1" as="geometry" />
        </mxCell>
        <mxCell id="RXHQ1XSv25AkQ3Qk1fcs-26" value="reservation_id" style="ellipse;whiteSpace=wrap;html=1;" parent="1" vertex="1">
          <mxGeometry x="60" y="-160" width="100" height="60" as="geometry" />
        </mxCell>
        <mxCell id="wKvJtehbNYMBdX50lIKt-4" style="edgeStyle=orthogonalEdgeStyle;rounded=0;orthogonalLoop=1;jettySize=auto;html=1;entryX=0;entryY=0.5;entryDx=0;entryDy=0;" edge="1" parent="1" source="RXHQ1XSv25AkQ3Qk1fcs-27" target="RXHQ1XSv25AkQ3Qk1fcs-24">
          <mxGeometry relative="1" as="geometry" />
        </mxCell>
        <mxCell id="RXHQ1XSv25AkQ3Qk1fcs-27" value="guest_id" style="ellipse;whiteSpace=wrap;html=1;" parent="1" vertex="1">
          <mxGeometry x="60" y="-90" width="100" height="60" as="geometry" />
        </mxCell>
        <mxCell id="wKvJtehbNYMBdX50lIKt-5" style="edgeStyle=orthogonalEdgeStyle;rounded=0;orthogonalLoop=1;jettySize=auto;html=1;entryX=0;entryY=0.5;entryDx=0;entryDy=0;" edge="1" parent="1" source="RXHQ1XSv25AkQ3Qk1fcs-28" target="RXHQ1XSv25AkQ3Qk1fcs-24">
          <mxGeometry relative="1" as="geometry" />
        </mxCell>
        <mxCell id="RXHQ1XSv25AkQ3Qk1fcs-28" value="total_amount" style="ellipse;whiteSpace=wrap;html=1;" parent="1" vertex="1">
          <mxGeometry x="60" y="-20" width="100" height="60" as="geometry" />
        </mxCell>
        <mxCell id="wKvJtehbNYMBdX50lIKt-6" style="edgeStyle=orthogonalEdgeStyle;rounded=0;orthogonalLoop=1;jettySize=auto;html=1;entryX=0;entryY=0.5;entryDx=0;entryDy=0;" edge="1" parent="1" source="RXHQ1XSv25AkQ3Qk1fcs-29" target="RXHQ1XSv25AkQ3Qk1fcs-24">
          <mxGeometry relative="1" as="geometry" />
        </mxCell>
        <mxCell id="RXHQ1XSv25AkQ3Qk1fcs-29" value="payment_status" style="ellipse;whiteSpace=wrap;html=1;" parent="1" vertex="1">
          <mxGeometry x="60" y="50" width="100" height="60" as="geometry" />
        </mxCell>
        <mxCell id="wKvJtehbNYMBdX50lIKt-7" style="edgeStyle=orthogonalEdgeStyle;rounded=0;orthogonalLoop=1;jettySize=auto;html=1;entryX=0;entryY=0.5;entryDx=0;entryDy=0;" edge="1" parent="1" source="RXHQ1XSv25AkQ3Qk1fcs-30" target="RXHQ1XSv25AkQ3Qk1fcs-24">
          <mxGeometry relative="1" as="geometry" />
        </mxCell>
        <mxCell id="RXHQ1XSv25AkQ3Qk1fcs-30" value="issue_date" style="ellipse;whiteSpace=wrap;html=1;" parent="1" vertex="1">
          <mxGeometry x="60" y="120" width="100" height="60" as="geometry" />
        </mxCell>
        <mxCell id="RXHQ1XSv25AkQ3Qk1fcs-31" value="Employee_Schedules" style="rounded=1;whiteSpace=wrap;html=1;" parent="1" vertex="1">
          <mxGeometry x="1240" y="90" width="150" height="80" as="geometry" />
        </mxCell>
        <mxCell id="RXHQ1XSv25AkQ3Qk1fcs-33" value="Employee" style="rounded=1;whiteSpace=wrap;html=1;" parent="1" vertex="1">
          <mxGeometry x="1650" y="95" width="150" height="80" as="geometry" />
        </mxCell>
        <mxCell id="RXHQ1XSv25AkQ3Qk1fcs-34" value="Payment" style="rounded=1;whiteSpace=wrap;html=1;" parent="1" vertex="1">
          <mxGeometry x="660" y="-10" width="150" height="80" as="geometry" />
        </mxCell>
        <mxCell id="RXHQ1XSv25AkQ3Qk1fcs-35" value="Guest" style="rounded=1;whiteSpace=wrap;html=1;" parent="1" vertex="1">
          <mxGeometry x="610" y="280" width="150" height="80" as="geometry" />
        </mxCell>
        <mxCell id="wKvJtehbNYMBdX50lIKt-18" style="edgeStyle=orthogonalEdgeStyle;rounded=0;orthogonalLoop=1;jettySize=auto;html=1;" edge="1" parent="1" source="RXHQ1XSv25AkQ3Qk1fcs-36" target="RXHQ1XSv25AkQ3Qk1fcs-31">
          <mxGeometry relative="1" as="geometry" />
        </mxCell>
        <mxCell id="RXHQ1XSv25AkQ3Qk1fcs-36" value="ScheduleID" style="ellipse;whiteSpace=wrap;html=1;" parent="1" vertex="1">
          <mxGeometry x="1050" y="70" width="100" height="60" as="geometry" />
        </mxCell>
        <mxCell id="wKvJtehbNYMBdX50lIKt-19" style="edgeStyle=orthogonalEdgeStyle;rounded=0;orthogonalLoop=1;jettySize=auto;html=1;entryX=0;entryY=0.5;entryDx=0;entryDy=0;" edge="1" parent="1" source="RXHQ1XSv25AkQ3Qk1fcs-37" target="RXHQ1XSv25AkQ3Qk1fcs-31">
          <mxGeometry relative="1" as="geometry" />
        </mxCell>
        <mxCell id="RXHQ1XSv25AkQ3Qk1fcs-37" value="EmployeeID " style="ellipse;whiteSpace=wrap;html=1;" parent="1" vertex="1">
          <mxGeometry x="1050" y="140" width="100" height="60" as="geometry" />
        </mxCell>
        <mxCell id="wKvJtehbNYMBdX50lIKt-20" style="edgeStyle=orthogonalEdgeStyle;rounded=0;orthogonalLoop=1;jettySize=auto;html=1;entryX=0;entryY=0.5;entryDx=0;entryDy=0;" edge="1" parent="1" source="RXHQ1XSv25AkQ3Qk1fcs-38" target="RXHQ1XSv25AkQ3Qk1fcs-31">
          <mxGeometry relative="1" as="geometry">
            <mxPoint x="1220" y="90" as="targetPoint" />
          </mxGeometry>
        </mxCell>
        <mxCell id="RXHQ1XSv25AkQ3Qk1fcs-38" value="WorkDate" style="ellipse;whiteSpace=wrap;html=1;" parent="1" vertex="1">
          <mxGeometry x="1050" y="210" width="100" height="60" as="geometry" />
        </mxCell>
        <mxCell id="wKvJtehbNYMBdX50lIKt-21" style="edgeStyle=orthogonalEdgeStyle;rounded=0;orthogonalLoop=1;jettySize=auto;html=1;entryX=0;entryY=0.5;entryDx=0;entryDy=0;" edge="1" parent="1" source="RXHQ1XSv25AkQ3Qk1fcs-39" target="RXHQ1XSv25AkQ3Qk1fcs-31">
          <mxGeometry relative="1" as="geometry" />
        </mxCell>
        <mxCell id="RXHQ1XSv25AkQ3Qk1fcs-39" value="StartTime" style="ellipse;whiteSpace=wrap;html=1;" parent="1" vertex="1">
          <mxGeometry x="1050" y="280" width="100" height="60" as="geometry" />
        </mxCell>
        <mxCell id="wKvJtehbNYMBdX50lIKt-23" style="edgeStyle=orthogonalEdgeStyle;rounded=0;orthogonalLoop=1;jettySize=auto;html=1;entryX=0;entryY=0.5;entryDx=0;entryDy=0;" edge="1" parent="1" source="RXHQ1XSv25AkQ3Qk1fcs-40" target="RXHQ1XSv25AkQ3Qk1fcs-31">
          <mxGeometry relative="1" as="geometry" />
        </mxCell>
        <mxCell id="RXHQ1XSv25AkQ3Qk1fcs-40" value="EndTime" style="ellipse;whiteSpace=wrap;html=1;" parent="1" vertex="1">
          <mxGeometry x="1050" y="350" width="100" height="60" as="geometry" />
        </mxCell>
        <mxCell id="wKvJtehbNYMBdX50lIKt-24" style="edgeStyle=orthogonalEdgeStyle;rounded=0;orthogonalLoop=1;jettySize=auto;html=1;entryX=1;entryY=0.5;entryDx=0;entryDy=0;" edge="1" parent="1" source="RXHQ1XSv25AkQ3Qk1fcs-41" target="RXHQ1XSv25AkQ3Qk1fcs-33">
          <mxGeometry relative="1" as="geometry" />
        </mxCell>
        <mxCell id="RXHQ1XSv25AkQ3Qk1fcs-41" value="EmployeeID " style="ellipse;whiteSpace=wrap;html=1;" parent="1" vertex="1">
          <mxGeometry x="1850" y="80" width="100" height="60" as="geometry" />
        </mxCell>
        <mxCell id="wKvJtehbNYMBdX50lIKt-25" style="edgeStyle=orthogonalEdgeStyle;rounded=0;orthogonalLoop=1;jettySize=auto;html=1;entryX=1;entryY=0.5;entryDx=0;entryDy=0;" edge="1" parent="1" source="RXHQ1XSv25AkQ3Qk1fcs-42" target="RXHQ1XSv25AkQ3Qk1fcs-33">
          <mxGeometry relative="1" as="geometry" />
        </mxCell>
        <mxCell id="RXHQ1XSv25AkQ3Qk1fcs-42" value="FirstName" style="ellipse;whiteSpace=wrap;html=1;" parent="1" vertex="1">
          <mxGeometry x="1850" y="150" width="100" height="60" as="geometry" />
        </mxCell>
        <mxCell id="wKvJtehbNYMBdX50lIKt-27" style="edgeStyle=orthogonalEdgeStyle;rounded=0;orthogonalLoop=1;jettySize=auto;html=1;entryX=1;entryY=0.5;entryDx=0;entryDy=0;" edge="1" parent="1" source="RXHQ1XSv25AkQ3Qk1fcs-43" target="RXHQ1XSv25AkQ3Qk1fcs-33">
          <mxGeometry relative="1" as="geometry" />
        </mxCell>
        <mxCell id="RXHQ1XSv25AkQ3Qk1fcs-43" value="Position" style="ellipse;whiteSpace=wrap;html=1;" parent="1" vertex="1">
          <mxGeometry x="1850" y="290" width="100" height="60" as="geometry" />
        </mxCell>
        <mxCell id="wKvJtehbNYMBdX50lIKt-26" style="edgeStyle=orthogonalEdgeStyle;rounded=0;orthogonalLoop=1;jettySize=auto;html=1;entryX=1;entryY=0.5;entryDx=0;entryDy=0;" edge="1" parent="1" source="RXHQ1XSv25AkQ3Qk1fcs-44" target="RXHQ1XSv25AkQ3Qk1fcs-33">
          <mxGeometry relative="1" as="geometry" />
        </mxCell>
        <mxCell id="RXHQ1XSv25AkQ3Qk1fcs-44" value="LastName " style="ellipse;whiteSpace=wrap;html=1;" parent="1" vertex="1">
          <mxGeometry x="1850" y="220" width="100" height="60" as="geometry" />
        </mxCell>
        <mxCell id="wKvJtehbNYMBdX50lIKt-28" style="edgeStyle=orthogonalEdgeStyle;rounded=0;orthogonalLoop=1;jettySize=auto;html=1;entryX=1;entryY=0.5;entryDx=0;entryDy=0;" edge="1" parent="1" source="RXHQ1XSv25AkQ3Qk1fcs-46" target="RXHQ1XSv25AkQ3Qk1fcs-33">
          <mxGeometry relative="1" as="geometry" />
        </mxCell>
        <mxCell id="RXHQ1XSv25AkQ3Qk1fcs-46" value="Salary" style="ellipse;whiteSpace=wrap;html=1;" parent="1" vertex="1">
          <mxGeometry x="1850" y="360" width="100" height="60" as="geometry" />
        </mxCell>
        <mxCell id="wKvJtehbNYMBdX50lIKt-29" style="edgeStyle=orthogonalEdgeStyle;rounded=0;orthogonalLoop=1;jettySize=auto;html=1;entryX=1;entryY=0.5;entryDx=0;entryDy=0;" edge="1" parent="1" source="RXHQ1XSv25AkQ3Qk1fcs-47" target="RXHQ1XSv25AkQ3Qk1fcs-33">
          <mxGeometry relative="1" as="geometry" />
        </mxCell>
        <mxCell id="RXHQ1XSv25AkQ3Qk1fcs-47" value="ContactNumber" style="ellipse;whiteSpace=wrap;html=1;" parent="1" vertex="1">
          <mxGeometry x="1850" y="440" width="100" height="60" as="geometry" />
        </mxCell>
        <mxCell id="wKvJtehbNYMBdX50lIKt-30" style="edgeStyle=orthogonalEdgeStyle;rounded=0;orthogonalLoop=1;jettySize=auto;html=1;entryX=1;entryY=0.5;entryDx=0;entryDy=0;" edge="1" parent="1" source="RXHQ1XSv25AkQ3Qk1fcs-48" target="RXHQ1XSv25AkQ3Qk1fcs-33">
          <mxGeometry relative="1" as="geometry" />
        </mxCell>
        <mxCell id="RXHQ1XSv25AkQ3Qk1fcs-48" value="email" style="ellipse;whiteSpace=wrap;html=1;" parent="1" vertex="1">
          <mxGeometry x="1850" y="510" width="100" height="60" as="geometry" />
        </mxCell>
        <mxCell id="wKvJtehbNYMBdX50lIKt-8" style="edgeStyle=orthogonalEdgeStyle;rounded=0;orthogonalLoop=1;jettySize=auto;html=1;entryX=1;entryY=0.5;entryDx=0;entryDy=0;" edge="1" parent="1" source="RXHQ1XSv25AkQ3Qk1fcs-49" target="RXHQ1XSv25AkQ3Qk1fcs-34">
          <mxGeometry relative="1" as="geometry" />
        </mxCell>
        <mxCell id="RXHQ1XSv25AkQ3Qk1fcs-49" value="PaymentID" style="ellipse;whiteSpace=wrap;html=1;" parent="1" vertex="1">
          <mxGeometry x="880" y="-110" width="100" height="60" as="geometry" />
        </mxCell>
        <mxCell id="wKvJtehbNYMBdX50lIKt-9" style="edgeStyle=orthogonalEdgeStyle;rounded=0;orthogonalLoop=1;jettySize=auto;html=1;entryX=1;entryY=0.5;entryDx=0;entryDy=0;" edge="1" parent="1" source="RXHQ1XSv25AkQ3Qk1fcs-50" target="RXHQ1XSv25AkQ3Qk1fcs-34">
          <mxGeometry relative="1" as="geometry" />
        </mxCell>
        <mxCell id="RXHQ1XSv25AkQ3Qk1fcs-50" value="InvoiceNumber " style="ellipse;whiteSpace=wrap;html=1;" parent="1" vertex="1">
          <mxGeometry x="881" y="-40" width="100" height="60" as="geometry" />
        </mxCell>
        <mxCell id="wKvJtehbNYMBdX50lIKt-10" style="edgeStyle=orthogonalEdgeStyle;rounded=0;orthogonalLoop=1;jettySize=auto;html=1;entryX=1;entryY=0.5;entryDx=0;entryDy=0;" edge="1" parent="1" source="RXHQ1XSv25AkQ3Qk1fcs-51" target="RXHQ1XSv25AkQ3Qk1fcs-34">
          <mxGeometry relative="1" as="geometry" />
        </mxCell>
        <mxCell id="RXHQ1XSv25AkQ3Qk1fcs-51" value="PaymentDate " style="ellipse;whiteSpace=wrap;html=1;" parent="1" vertex="1">
          <mxGeometry x="881" y="40" width="100" height="60" as="geometry" />
        </mxCell>
        <mxCell id="wKvJtehbNYMBdX50lIKt-11" style="edgeStyle=orthogonalEdgeStyle;rounded=0;orthogonalLoop=1;jettySize=auto;html=1;entryX=1;entryY=0.5;entryDx=0;entryDy=0;" edge="1" parent="1" source="RXHQ1XSv25AkQ3Qk1fcs-52" target="RXHQ1XSv25AkQ3Qk1fcs-34">
          <mxGeometry relative="1" as="geometry" />
        </mxCell>
        <mxCell id="RXHQ1XSv25AkQ3Qk1fcs-52" value="PaymentMethod" style="ellipse;whiteSpace=wrap;html=1;" parent="1" vertex="1">
          <mxGeometry x="880" y="120" width="100" height="60" as="geometry" />
        </mxCell>
        <mxCell id="YuRVg5OCgSCOBWCLDBt9-11" value="book" style="rhombus;whiteSpace=wrap;html=1;" parent="1" vertex="1">
          <mxGeometry x="430" y="280" width="120" height="80" as="geometry" />
        </mxCell>
        <mxCell id="YuRVg5OCgSCOBWCLDBt9-13" value="" style="endArrow=none;html=1;rounded=0;exitX=1;exitY=0.5;exitDx=0;exitDy=0;" parent="1" source="RXHQ1XSv25AkQ3Qk1fcs-1" edge="1">
          <mxGeometry width="50" height="50" relative="1" as="geometry">
            <mxPoint x="320" y="300" as="sourcePoint" />
            <mxPoint x="430" y="320" as="targetPoint" />
          </mxGeometry>
        </mxCell>
        <mxCell id="YuRVg5OCgSCOBWCLDBt9-14" value="" style="endArrow=none;html=1;rounded=0;exitX=1;exitY=0.5;exitDx=0;exitDy=0;entryX=0;entryY=0.5;entryDx=0;entryDy=0;" parent="1" source="YuRVg5OCgSCOBWCLDBt9-11" target="RXHQ1XSv25AkQ3Qk1fcs-35" edge="1">
          <mxGeometry width="50" height="50" relative="1" as="geometry">
            <mxPoint x="390" y="330" as="sourcePoint" />
            <mxPoint x="440" y="330" as="targetPoint" />
          </mxGeometry>
        </mxCell>
        <mxCell id="YuRVg5OCgSCOBWCLDBt9-19" style="edgeStyle=orthogonalEdgeStyle;rounded=0;orthogonalLoop=1;jettySize=auto;html=1;entryX=1;entryY=0.5;entryDx=0;entryDy=0;" parent="1" source="YuRVg5OCgSCOBWCLDBt9-16" target="RXHQ1XSv25AkQ3Qk1fcs-35" edge="1">
          <mxGeometry relative="1" as="geometry">
            <mxPoint x="800" y="325" as="targetPoint" />
          </mxGeometry>
        </mxCell>
        <mxCell id="YuRVg5OCgSCOBWCLDBt9-16" value="guest_id" style="ellipse;whiteSpace=wrap;html=1;" parent="1" vertex="1">
          <mxGeometry x="810" y="290" width="100" height="60" as="geometry" />
        </mxCell>
        <mxCell id="YuRVg5OCgSCOBWCLDBt9-20" style="edgeStyle=orthogonalEdgeStyle;rounded=0;orthogonalLoop=1;jettySize=auto;html=1;entryX=1;entryY=0.5;entryDx=0;entryDy=0;" parent="1" source="YuRVg5OCgSCOBWCLDBt9-17" target="RXHQ1XSv25AkQ3Qk1fcs-35" edge="1">
          <mxGeometry relative="1" as="geometry" />
        </mxCell>
        <mxCell id="YuRVg5OCgSCOBWCLDBt9-17" value="guest_name" style="ellipse;whiteSpace=wrap;html=1;" parent="1" vertex="1">
          <mxGeometry x="810" y="430" width="100" height="60" as="geometry" />
        </mxCell>
        <mxCell id="YuRVg5OCgSCOBWCLDBt9-24" style="edgeStyle=orthogonalEdgeStyle;rounded=0;orthogonalLoop=1;jettySize=auto;html=1;entryX=0;entryY=0.5;entryDx=0;entryDy=0;" parent="1" source="YuRVg5OCgSCOBWCLDBt9-23" target="RXHQ1XSv25AkQ3Qk1fcs-1" edge="1">
          <mxGeometry relative="1" as="geometry" />
        </mxCell>
        <mxCell id="YuRVg5OCgSCOBWCLDBt9-23" value="room_id" style="ellipse;whiteSpace=wrap;html=1;" parent="1" vertex="1">
          <mxGeometry x="50" y="890" width="100" height="60" as="geometry" />
        </mxCell>
        <mxCell id="YuRVg5OCgSCOBWCLDBt9-30" value="belongs_to" style="rhombus;whiteSpace=wrap;html=1;" parent="1" vertex="1">
          <mxGeometry x="245" y="400" width="120" height="80" as="geometry" />
        </mxCell>
        <mxCell id="YuRVg5OCgSCOBWCLDBt9-31" value="" style="endArrow=none;html=1;rounded=0;exitX=0.5;exitY=1;exitDx=0;exitDy=0;entryX=0.5;entryY=0;entryDx=0;entryDy=0;" parent="1" source="RXHQ1XSv25AkQ3Qk1fcs-1" target="YuRVg5OCgSCOBWCLDBt9-30" edge="1">
          <mxGeometry width="50" height="50" relative="1" as="geometry">
            <mxPoint x="390" y="330" as="sourcePoint" />
            <mxPoint x="440" y="330" as="targetPoint" />
          </mxGeometry>
        </mxCell>
        <mxCell id="YuRVg5OCgSCOBWCLDBt9-32" value="" style="endArrow=none;html=1;rounded=0;exitX=0.5;exitY=1;exitDx=0;exitDy=0;entryX=0.5;entryY=0;entryDx=0;entryDy=0;" parent="1" source="YuRVg5OCgSCOBWCLDBt9-30" target="RXHQ1XSv25AkQ3Qk1fcs-13" edge="1">
          <mxGeometry width="50" height="50" relative="1" as="geometry">
            <mxPoint x="315" y="370" as="sourcePoint" />
            <mxPoint x="315" y="410" as="targetPoint" />
          </mxGeometry>
        </mxCell>
        <mxCell id="wKvJtehbNYMBdX50lIKt-12" value="" style="endArrow=none;html=1;rounded=0;exitX=1;exitY=0.5;exitDx=0;exitDy=0;" edge="1" parent="1" source="RXHQ1XSv25AkQ3Qk1fcs-24">
          <mxGeometry width="50" height="50" relative="1" as="geometry">
            <mxPoint x="390" y="330" as="sourcePoint" />
            <mxPoint x="460" y="30" as="targetPoint" />
          </mxGeometry>
        </mxCell>
        <mxCell id="wKvJtehbNYMBdX50lIKt-13" value="belongs_to" style="rhombus;whiteSpace=wrap;html=1;" vertex="1" parent="1">
          <mxGeometry x="460" y="-10" width="120" height="80" as="geometry" />
        </mxCell>
        <mxCell id="wKvJtehbNYMBdX50lIKt-14" value="" style="endArrow=none;html=1;rounded=0;exitX=0;exitY=0.5;exitDx=0;exitDy=0;entryX=1;entryY=0.5;entryDx=0;entryDy=0;" edge="1" parent="1" source="RXHQ1XSv25AkQ3Qk1fcs-34" target="wKvJtehbNYMBdX50lIKt-13">
          <mxGeometry width="50" height="50" relative="1" as="geometry">
            <mxPoint x="390" y="40" as="sourcePoint" />
            <mxPoint x="470" y="40" as="targetPoint" />
          </mxGeometry>
        </mxCell>
        <mxCell id="wKvJtehbNYMBdX50lIKt-15" value="generate" style="rhombus;whiteSpace=wrap;html=1;" vertex="1" parent="1">
          <mxGeometry x="245" y="140" width="120" height="80" as="geometry" />
        </mxCell>
        <mxCell id="wKvJtehbNYMBdX50lIKt-16" value="" style="endArrow=none;html=1;rounded=0;exitX=0.5;exitY=1;exitDx=0;exitDy=0;entryX=0.5;entryY=0;entryDx=0;entryDy=0;" edge="1" parent="1" source="wKvJtehbNYMBdX50lIKt-15" target="RXHQ1XSv25AkQ3Qk1fcs-1">
          <mxGeometry width="50" height="50" relative="1" as="geometry">
            <mxPoint x="390" y="40" as="sourcePoint" />
            <mxPoint x="470" y="40" as="targetPoint" />
          </mxGeometry>
        </mxCell>
        <mxCell id="wKvJtehbNYMBdX50lIKt-17" value="" style="endArrow=none;html=1;rounded=0;exitX=0.5;exitY=0;exitDx=0;exitDy=0;entryX=0.5;entryY=1;entryDx=0;entryDy=0;" edge="1" parent="1" source="wKvJtehbNYMBdX50lIKt-15" target="RXHQ1XSv25AkQ3Qk1fcs-24">
          <mxGeometry width="50" height="50" relative="1" as="geometry">
            <mxPoint x="315" y="230" as="sourcePoint" />
            <mxPoint x="315" y="290" as="targetPoint" />
          </mxGeometry>
        </mxCell>
        <mxCell id="wKvJtehbNYMBdX50lIKt-31" value="assigned_to" style="rhombus;whiteSpace=wrap;html=1;" vertex="1" parent="1">
          <mxGeometry x="1460" y="90" width="120" height="80" as="geometry" />
        </mxCell>
        <mxCell id="wKvJtehbNYMBdX50lIKt-34" value="" style="endArrow=none;html=1;rounded=0;exitX=1;exitY=0.5;exitDx=0;exitDy=0;entryX=0;entryY=0.5;entryDx=0;entryDy=0;" edge="1" parent="1" source="RXHQ1XSv25AkQ3Qk1fcs-31" target="wKvJtehbNYMBdX50lIKt-31">
          <mxGeometry width="50" height="50" relative="1" as="geometry">
            <mxPoint x="1460" y="220" as="sourcePoint" />
            <mxPoint x="1510" y="170" as="targetPoint" />
          </mxGeometry>
        </mxCell>
        <mxCell id="wKvJtehbNYMBdX50lIKt-36" value="" style="endArrow=none;html=1;rounded=0;exitX=1;exitY=0.5;exitDx=0;exitDy=0;entryX=0;entryY=0.5;entryDx=0;entryDy=0;" edge="1" parent="1" source="wKvJtehbNYMBdX50lIKt-31" target="RXHQ1XSv25AkQ3Qk1fcs-33">
          <mxGeometry width="50" height="50" relative="1" as="geometry">
            <mxPoint x="1460" y="310" as="sourcePoint" />
            <mxPoint x="1510" y="260" as="targetPoint" />
          </mxGeometry>
        </mxCell>
        <mxCell id="wKvJtehbNYMBdX50lIKt-37" value="services" style="rounded=1;whiteSpace=wrap;html=1;" vertex="1" parent="1">
          <mxGeometry x="840" y="820" width="120" height="60" as="geometry" />
        </mxCell>
        <mxCell id="wKvJtehbNYMBdX50lIKt-42" style="edgeStyle=orthogonalEdgeStyle;rounded=0;orthogonalLoop=1;jettySize=auto;html=1;" edge="1" parent="1" source="wKvJtehbNYMBdX50lIKt-38" target="wKvJtehbNYMBdX50lIKt-37">
          <mxGeometry relative="1" as="geometry" />
        </mxCell>
        <mxCell id="wKvJtehbNYMBdX50lIKt-38" value="service_id" style="ellipse;whiteSpace=wrap;html=1;" vertex="1" parent="1">
          <mxGeometry x="685" y="820" width="100" height="60" as="geometry" />
        </mxCell>
        <mxCell id="wKvJtehbNYMBdX50lIKt-43" style="edgeStyle=orthogonalEdgeStyle;rounded=0;orthogonalLoop=1;jettySize=auto;html=1;entryX=0;entryY=0.5;entryDx=0;entryDy=0;" edge="1" parent="1" source="wKvJtehbNYMBdX50lIKt-39" target="wKvJtehbNYMBdX50lIKt-37">
          <mxGeometry relative="1" as="geometry" />
        </mxCell>
        <mxCell id="wKvJtehbNYMBdX50lIKt-39" value="service_name" style="ellipse;whiteSpace=wrap;html=1;" vertex="1" parent="1">
          <mxGeometry x="685" y="900" width="100" height="60" as="geometry" />
        </mxCell>
        <mxCell id="wKvJtehbNYMBdX50lIKt-44" style="edgeStyle=orthogonalEdgeStyle;rounded=0;orthogonalLoop=1;jettySize=auto;html=1;entryX=0;entryY=0.5;entryDx=0;entryDy=0;" edge="1" parent="1" source="wKvJtehbNYMBdX50lIKt-40" target="wKvJtehbNYMBdX50lIKt-37">
          <mxGeometry relative="1" as="geometry">
            <mxPoint x="810" y="1000" as="targetPoint" />
          </mxGeometry>
        </mxCell>
        <mxCell id="wKvJtehbNYMBdX50lIKt-40" value="price" style="ellipse;whiteSpace=wrap;html=1;" vertex="1" parent="1">
          <mxGeometry x="685" y="970" width="100" height="60" as="geometry" />
        </mxCell>
        <mxCell id="wKvJtehbNYMBdX50lIKt-46" value="room_services" style="rounded=1;whiteSpace=wrap;html=1;" vertex="1" parent="1">
          <mxGeometry x="1090" y="820" width="120" height="60" as="geometry" />
        </mxCell>
        <mxCell id="wKvJtehbNYMBdX50lIKt-49" style="edgeStyle=orthogonalEdgeStyle;rounded=0;orthogonalLoop=1;jettySize=auto;html=1;entryX=1;entryY=0.5;entryDx=0;entryDy=0;" edge="1" parent="1" source="wKvJtehbNYMBdX50lIKt-47" target="wKvJtehbNYMBdX50lIKt-46">
          <mxGeometry relative="1" as="geometry" />
        </mxCell>
        <mxCell id="wKvJtehbNYMBdX50lIKt-47" value="service_id" style="ellipse;whiteSpace=wrap;html=1;" vertex="1" parent="1">
          <mxGeometry x="1260" y="820" width="100" height="60" as="geometry" />
        </mxCell>
        <mxCell id="wKvJtehbNYMBdX50lIKt-50" style="edgeStyle=orthogonalEdgeStyle;rounded=0;orthogonalLoop=1;jettySize=auto;html=1;entryX=1;entryY=0.5;entryDx=0;entryDy=0;" edge="1" parent="1" source="wKvJtehbNYMBdX50lIKt-48" target="wKvJtehbNYMBdX50lIKt-46">
          <mxGeometry relative="1" as="geometry" />
        </mxCell>
        <mxCell id="wKvJtehbNYMBdX50lIKt-48" value="room_id" style="ellipse;whiteSpace=wrap;html=1;" vertex="1" parent="1">
          <mxGeometry x="1260" y="890" width="100" height="60" as="geometry" />
        </mxCell>
      </root>
    </mxGraphModel>
  </diagram>
</mxfile>
